<?xml version="1.0" encoding="UTF-8" standalone="no"?>
<!DOCTYPE svg PUBLIC "-//W3C//DTD SVG 1.1//EN" "http://www.w3.org/Graphics/SVG/1.1/DTD/svg11.dtd">
<svg width="100%" height="100%" viewBox="0 0 490 494" version="1.1" xmlns="http://www.w3.org/2000/svg" xmlns:xlink="http://www.w3.org/1999/xlink" xml:space="preserve" xmlns:serif="http://www.serif.com/" style="fill-rule:evenodd;clip-rule:evenodd;stroke-linejoin:round;stroke-miterlimit:2;">
    <g id="Artboard2" transform="matrix(1,0,0,1,627.311302,151.754139)">
        <rect x="-627.311" y="-151.754" width="489.895" height="493.125" style="fill:none;"/>
        <g transform="matrix(1,0,0,1,-692.311302,-212.754139)">
            <path d="M308.34,501.2C237.76,501.2 180.34,443.78 180.34,373.2L180.34,253.2C180.34,182.62 237.76,125.2 308.34,125.2C378.92,125.2 436.34,182.62 436.34,253.2L436.34,373.2C436.34,443.78 378.92,501.2 308.34,501.2ZM308.34,141.2C246.58,141.2 196.34,191.44 196.34,253.2L196.34,373.2C196.34,434.96 246.58,485.2 308.34,485.2C370.1,485.2 420.34,434.96 420.34,373.2L420.34,253.2C420.34,191.44 370.1,141.2 308.34,141.2Z" style="fill:rgb(74,245,143);fill-rule:nonzero;"/>
        </g>
        <g transform="matrix(1,0,0,1,-692.311302,-212.754139)">
            <path d="M308.34,477.2C250.99,477.2 204.34,430.55 204.34,373.2L204.34,253.2C204.34,195.85 250.99,149.2 308.34,149.2C365.69,149.2 412.34,195.85 412.34,253.2L412.34,373.2C412.34,430.55 365.69,477.2 308.34,477.2ZM308.34,157.2C255.41,157.2 212.34,200.27 212.34,253.2L212.34,373.2C212.34,426.13 255.41,469.2 308.34,469.2C361.27,469.2 404.34,426.13 404.34,373.2L404.34,253.2C404.34,200.27 361.27,157.2 308.34,157.2Z" style="fill:rgb(74,245,143);fill-opacity:0.5;fill-rule:nonzero;"/>
        </g>
        <g transform="matrix(1,0,0,1,-692.311302,-212.754139)">
            <path d="M158.34,368.45C134.34,368.45 134.34,327.81 134.34,314.45C134.34,301.09 134.34,260.45 158.34,260.45C160.55,260.45 162.34,262.24 162.34,264.45C162.34,266.66 160.55,268.45 158.34,268.45C145.12,268.45 142.34,293.47 142.34,314.45C142.34,335.43 145.12,360.45 158.34,360.45C160.55,360.45 162.34,362.24 162.34,364.45C162.34,366.66 160.55,368.45 158.34,368.45Z" style="fill:rgb(74,245,143);fill-opacity:0.8;fill-rule:nonzero;"/>
            <path d="M138.34,388.45C118.83,388.45 109.34,364.24 109.34,314.45C109.34,264.66 118.83,240.45 138.34,240.45C140.55,240.45 142.34,242.24 142.34,244.45C142.34,246.66 140.55,248.45 138.34,248.45C120.98,248.45 117.34,284.34 117.34,314.45C117.34,344.56 120.98,380.45 138.34,380.45C140.55,380.45 142.34,382.24 142.34,384.45C142.34,386.66 140.55,388.45 138.34,388.45Z" style="fill:rgb(74,245,143);fill-opacity:0.6;fill-rule:nonzero;"/>
            <path d="M458.34,368.45C456.13,368.45 454.34,366.66 454.34,364.45C454.34,362.24 456.13,360.45 458.34,360.45C471.56,360.45 474.34,335.43 474.34,314.45C474.34,293.47 471.56,268.45 458.34,268.45C456.13,268.45 454.34,266.66 454.34,264.45C454.34,262.24 456.13,260.45 458.34,260.45C482.34,260.45 482.34,301.09 482.34,314.45C482.34,327.81 482.34,368.45 458.34,368.45Z" style="fill:rgb(74,245,143);fill-opacity:0.8;fill-rule:nonzero;"/>
            <path d="M478.34,388.45C476.13,388.45 474.34,386.66 474.34,384.45C474.34,382.24 476.13,380.45 478.34,380.45C495.7,380.45 499.34,344.56 499.34,314.45C499.34,284.34 495.7,248.45 478.34,248.45C476.13,248.45 474.34,246.66 474.34,244.45C474.34,242.24 476.13,240.45 478.34,240.45C497.85,240.45 507.34,264.66 507.34,314.45C507.34,364.24 497.85,388.45 478.34,388.45Z" style="fill:rgb(74,245,143);fill-opacity:0.6;fill-rule:nonzero;"/>
        </g>
        <g transform="matrix(1,0,0,1,-692.311302,-212.754139)">
            <path d="M333.34,250.87L333.34,375.53C333.34,379.763 329.903,383.2 325.67,383.2L291.01,383.2C286.777,383.2 283.34,379.763 283.34,375.53L283.34,250.87C283.34,246.637 286.777,243.2 291.01,243.2L325.67,243.2C329.903,243.2 333.34,246.637 333.34,250.87Z" style="fill:rgb(74,245,143);"/>
            <g transform="matrix(-0,-1,1,-0,-4.86,621.54)">
                <path d="M333.34,250.87L333.34,375.53C333.34,379.763 329.903,383.2 325.67,383.2L291.01,383.2C286.777,383.2 283.34,379.763 283.34,375.53L283.34,250.87C283.34,246.637 286.777,243.2 291.01,243.2L325.67,243.2C329.903,243.2 333.34,246.637 333.34,250.87Z" style="fill:rgb(74,245,143);"/>
            </g>
        </g>
    </g>
</svg>
